<mxfile host="65bd71144e">
    <diagram id="1WbaS2PJTzpX8LP1Cl96" name="Nivel 0">
        <mxGraphModel dx="287" dy="350" grid="1" gridSize="10" guides="1" tooltips="1" connect="1" arrows="1" fold="1" page="1" pageScale="1" pageWidth="850" pageHeight="1100" math="0" shadow="0">
            <root>
                <mxCell id="0"/>
                <mxCell id="1" parent="0"/>
                <mxCell id="4" style="edgeStyle=none;html=1;exitX=1;exitY=0.5;exitDx=0;exitDy=0;entryX=0;entryY=0.5;entryDx=0;entryDy=0;" parent="1" source="2" target="3" edge="1">
                    <mxGeometry relative="1" as="geometry"/>
                </mxCell>
                <mxCell id="2" value="Eventos no ambiente" style="rounded=0;whiteSpace=wrap;html=1;" parent="1" vertex="1">
                    <mxGeometry x="120" y="150" width="120" height="60" as="geometry"/>
                </mxCell>
                <mxCell id="6" style="edgeStyle=none;html=1;exitX=1;exitY=0.5;exitDx=0;exitDy=0;entryX=0;entryY=0.5;entryDx=0;entryDy=0;" parent="1" source="3" target="5" edge="1">
                    <mxGeometry relative="1" as="geometry"/>
                </mxCell>
                <mxCell id="3" value="Sistema&lt;br&gt;de Alertas" style="ellipse;whiteSpace=wrap;html=1;aspect=fixed;" parent="1" vertex="1">
                    <mxGeometry x="320" y="140" width="80" height="80" as="geometry"/>
                </mxCell>
                <mxCell id="5" value="Usuário" style="rounded=0;whiteSpace=wrap;html=1;" parent="1" vertex="1">
                    <mxGeometry x="480" y="150" width="120" height="60" as="geometry"/>
                </mxCell>
                <mxCell id="7" value="informação bruta" style="text;html=1;strokeColor=none;fillColor=none;align=center;verticalAlign=middle;whiteSpace=wrap;rounded=0;" parent="1" vertex="1">
                    <mxGeometry x="250" y="165" width="60" height="30" as="geometry"/>
                </mxCell>
                <mxCell id="8" value="alerta&lt;br&gt;processado" style="text;html=1;strokeColor=none;fillColor=none;align=center;verticalAlign=middle;whiteSpace=wrap;rounded=0;" parent="1" vertex="1">
                    <mxGeometry x="410" y="165" width="60" height="30" as="geometry"/>
                </mxCell>
            </root>
        </mxGraphModel>
    </diagram>
    <diagram id="KrD0JC63rpYbsCpiONp4" name="Nivel 1">
        <mxGraphModel dx="287" dy="350" grid="1" gridSize="10" guides="1" tooltips="1" connect="1" arrows="1" fold="1" page="1" pageScale="1" pageWidth="850" pageHeight="1100" math="0" shadow="0">
            <root>
                <mxCell id="0"/>
                <mxCell id="1" parent="0"/>
                <mxCell id="6-BFR79x1wfVHCBuoXgv-1" style="edgeStyle=none;html=1;entryX=0;entryY=0.5;entryDx=0;entryDy=0;" parent="1" target="6-BFR79x1wfVHCBuoXgv-4" edge="1">
                    <mxGeometry relative="1" as="geometry">
                        <mxPoint x="260" y="200" as="sourcePoint"/>
                    </mxGeometry>
                </mxCell>
                <mxCell id="6-BFR79x1wfVHCBuoXgv-10" style="edgeStyle=none;html=1;exitX=1;exitY=0.5;exitDx=0;exitDy=0;" parent="1" source="6-BFR79x1wfVHCBuoXgv-2" target="6-BFR79x1wfVHCBuoXgv-8" edge="1">
                    <mxGeometry relative="1" as="geometry"/>
                </mxCell>
                <mxCell id="6-BFR79x1wfVHCBuoXgv-11" style="edgeStyle=none;html=1;entryX=0;entryY=0.5;entryDx=0;entryDy=0;" parent="1" target="6-BFR79x1wfVHCBuoXgv-9" edge="1">
                    <mxGeometry relative="1" as="geometry">
                        <mxPoint x="260" y="200" as="sourcePoint"/>
                    </mxGeometry>
                </mxCell>
                <mxCell id="6-BFR79x1wfVHCBuoXgv-2" value="Eventos no ambiente" style="rounded=0;whiteSpace=wrap;html=1;" parent="1" vertex="1">
                    <mxGeometry x="50" y="170" width="120" height="60" as="geometry"/>
                </mxCell>
                <mxCell id="6-BFR79x1wfVHCBuoXgv-15" style="edgeStyle=none;html=1;exitX=1;exitY=0.5;exitDx=0;exitDy=0;entryX=0;entryY=0.5;entryDx=0;entryDy=0;" parent="1" source="6-BFR79x1wfVHCBuoXgv-4" target="6-BFR79x1wfVHCBuoXgv-14" edge="1">
                    <mxGeometry relative="1" as="geometry"/>
                </mxCell>
                <mxCell id="6-BFR79x1wfVHCBuoXgv-4" value="Dispositivos&lt;br&gt;LoRa" style="ellipse;whiteSpace=wrap;html=1;aspect=fixed;" parent="1" vertex="1">
                    <mxGeometry x="320" y="60" width="80" height="80" as="geometry"/>
                </mxCell>
                <mxCell id="6-BFR79x1wfVHCBuoXgv-6" value="Informação bruta" style="text;html=1;strokeColor=none;fillColor=none;align=center;verticalAlign=middle;whiteSpace=wrap;rounded=0;" parent="1" vertex="1">
                    <mxGeometry x="190" y="185" width="60" height="30" as="geometry"/>
                </mxCell>
                <mxCell id="6-BFR79x1wfVHCBuoXgv-13" style="edgeStyle=none;html=1;exitX=1;exitY=0.5;exitDx=0;exitDy=0;entryX=0;entryY=0.5;entryDx=0;entryDy=0;" parent="1" source="6-BFR79x1wfVHCBuoXgv-8" target="6-BFR79x1wfVHCBuoXgv-12" edge="1">
                    <mxGeometry relative="1" as="geometry"/>
                </mxCell>
                <mxCell id="6-BFR79x1wfVHCBuoXgv-8" value="Dispositivos&lt;br&gt;MQTT" style="ellipse;whiteSpace=wrap;html=1;aspect=fixed;" parent="1" vertex="1">
                    <mxGeometry x="320" y="160" width="80" height="80" as="geometry"/>
                </mxCell>
                <mxCell id="6-BFR79x1wfVHCBuoXgv-20" style="edgeStyle=none;html=1;exitX=1;exitY=0.5;exitDx=0;exitDy=0;entryX=0;entryY=1;entryDx=0;entryDy=0;" parent="1" source="6-BFR79x1wfVHCBuoXgv-9" target="6-BFR79x1wfVHCBuoXgv-16" edge="1">
                    <mxGeometry relative="1" as="geometry"/>
                </mxCell>
                <mxCell id="6-BFR79x1wfVHCBuoXgv-9" value="Dispositivos&lt;br&gt;HTTP" style="ellipse;whiteSpace=wrap;html=1;aspect=fixed;" parent="1" vertex="1">
                    <mxGeometry x="320" y="250" width="80" height="80" as="geometry"/>
                </mxCell>
                <mxCell id="6-BFR79x1wfVHCBuoXgv-19" style="edgeStyle=none;html=1;exitX=1;exitY=0.5;exitDx=0;exitDy=0;entryX=0;entryY=0.5;entryDx=0;entryDy=0;" parent="1" source="6-BFR79x1wfVHCBuoXgv-12" target="6-BFR79x1wfVHCBuoXgv-16" edge="1">
                    <mxGeometry relative="1" as="geometry"/>
                </mxCell>
                <mxCell id="6-BFR79x1wfVHCBuoXgv-12" value="Broker&lt;br&gt;MQTT" style="ellipse;whiteSpace=wrap;html=1;aspect=fixed;" parent="1" vertex="1">
                    <mxGeometry x="460" y="160" width="80" height="80" as="geometry"/>
                </mxCell>
                <mxCell id="6-BFR79x1wfVHCBuoXgv-18" style="edgeStyle=none;html=1;exitX=1;exitY=1;exitDx=0;exitDy=0;entryX=0;entryY=0;entryDx=0;entryDy=0;" parent="1" source="6-BFR79x1wfVHCBuoXgv-14" target="6-BFR79x1wfVHCBuoXgv-16" edge="1">
                    <mxGeometry relative="1" as="geometry"/>
                </mxCell>
                <mxCell id="6-BFR79x1wfVHCBuoXgv-21" style="edgeStyle=none;html=1;exitX=0.5;exitY=1;exitDx=0;exitDy=0;entryX=0.5;entryY=0;entryDx=0;entryDy=0;" parent="1" source="6-BFR79x1wfVHCBuoXgv-14" target="6-BFR79x1wfVHCBuoXgv-12" edge="1">
                    <mxGeometry relative="1" as="geometry"/>
                </mxCell>
                <mxCell id="6-BFR79x1wfVHCBuoXgv-14" value="Gateway&lt;br&gt;LoRa" style="ellipse;whiteSpace=wrap;html=1;aspect=fixed;" parent="1" vertex="1">
                    <mxGeometry x="460" y="60" width="80" height="80" as="geometry"/>
                </mxCell>
                <mxCell id="6-BFR79x1wfVHCBuoXgv-23" style="edgeStyle=none;html=1;exitX=1;exitY=0.5;exitDx=0;exitDy=0;entryX=0;entryY=0.5;entryDx=0;entryDy=0;" parent="1" source="6-BFR79x1wfVHCBuoXgv-16" target="6-BFR79x1wfVHCBuoXgv-22" edge="1">
                    <mxGeometry relative="1" as="geometry"/>
                </mxCell>
                <mxCell id="13" style="edgeStyle=none;html=1;exitX=1;exitY=0;exitDx=0;exitDy=0;entryX=0;entryY=1;entryDx=0;entryDy=0;" parent="1" source="6-BFR79x1wfVHCBuoXgv-16" target="12" edge="1">
                    <mxGeometry relative="1" as="geometry"/>
                </mxCell>
                <mxCell id="c3Z-FJHeCBaoF77aCJPA-15" style="edgeStyle=none;html=1;entryX=0.363;entryY=-0.063;entryDx=0;entryDy=0;exitX=0.295;exitY=0.991;exitDx=0;exitDy=0;exitPerimeter=0;entryPerimeter=0;" edge="1" parent="1" source="6-BFR79x1wfVHCBuoXgv-16" target="c3Z-FJHeCBaoF77aCJPA-14">
                    <mxGeometry relative="1" as="geometry"/>
                </mxCell>
                <mxCell id="6-BFR79x1wfVHCBuoXgv-16" value="Backend" style="ellipse;whiteSpace=wrap;html=1;aspect=fixed;" parent="1" vertex="1">
                    <mxGeometry x="600" y="160" width="80" height="80" as="geometry"/>
                </mxCell>
                <mxCell id="6-BFR79x1wfVHCBuoXgv-22" value="Frontend" style="ellipse;whiteSpace=wrap;html=1;aspect=fixed;" parent="1" vertex="1">
                    <mxGeometry x="760" y="160" width="80" height="80" as="geometry"/>
                </mxCell>
                <mxCell id="JfstejluEEpdsWlLSk-V-1" value="Alerta&lt;br&gt;processado" style="text;html=1;strokeColor=none;fillColor=none;align=center;verticalAlign=middle;whiteSpace=wrap;rounded=0;" parent="1" vertex="1">
                    <mxGeometry x="690" y="185" width="60" height="30" as="geometry"/>
                </mxCell>
                <mxCell id="6" value="Alerta" style="text;html=1;strokeColor=none;fillColor=none;align=center;verticalAlign=middle;whiteSpace=wrap;rounded=0;" parent="1" vertex="1">
                    <mxGeometry x="395" y="80" width="60" height="30" as="geometry"/>
                </mxCell>
                <mxCell id="7" value="Alerta" style="text;html=1;strokeColor=none;fillColor=none;align=center;verticalAlign=middle;whiteSpace=wrap;rounded=0;" parent="1" vertex="1">
                    <mxGeometry x="395" y="180" width="60" height="30" as="geometry"/>
                </mxCell>
                <mxCell id="8" value="Alerta" style="text;html=1;strokeColor=none;fillColor=none;align=center;verticalAlign=middle;whiteSpace=wrap;rounded=0;" parent="1" vertex="1">
                    <mxGeometry x="540" y="180" width="60" height="30" as="geometry"/>
                </mxCell>
                <mxCell id="10" value="Alerta" style="text;html=1;strokeColor=none;fillColor=none;align=center;verticalAlign=middle;whiteSpace=wrap;rounded=0;rotation=30;" parent="1" vertex="1">
                    <mxGeometry x="540" y="120" width="60" height="30" as="geometry"/>
                </mxCell>
                <mxCell id="11" value="Alerta" style="text;html=1;strokeColor=none;fillColor=none;align=center;verticalAlign=middle;whiteSpace=wrap;rounded=0;rotation=-20;" parent="1" vertex="1">
                    <mxGeometry x="420" y="250" width="60" height="30" as="geometry"/>
                </mxCell>
                <mxCell id="12" value="Telegram" style="ellipse;whiteSpace=wrap;html=1;aspect=fixed;" parent="1" vertex="1">
                    <mxGeometry x="760" y="70" width="80" height="80" as="geometry"/>
                </mxCell>
                <mxCell id="14" value="Alerta&lt;br&gt;processado" style="text;html=1;strokeColor=none;fillColor=none;align=center;verticalAlign=middle;whiteSpace=wrap;rounded=0;rotation=-20;" parent="1" vertex="1">
                    <mxGeometry x="690" y="140" width="60" height="30" as="geometry"/>
                </mxCell>
                <mxCell id="c3Z-FJHeCBaoF77aCJPA-16" style="edgeStyle=none;html=1;entryX=0.651;entryY=1;entryDx=0;entryDy=0;exitX=0.601;exitY=-0.063;exitDx=0;exitDy=0;exitPerimeter=0;entryPerimeter=0;" edge="1" parent="1" source="c3Z-FJHeCBaoF77aCJPA-14" target="6-BFR79x1wfVHCBuoXgv-16">
                    <mxGeometry relative="1" as="geometry"/>
                </mxCell>
                <mxCell id="c3Z-FJHeCBaoF77aCJPA-14" value="Banco de dados" style="rounded=1;whiteSpace=wrap;html=1;" vertex="1" parent="1">
                    <mxGeometry x="580" y="280" width="120" height="40" as="geometry"/>
                </mxCell>
            </root>
        </mxGraphModel>
    </diagram>
</mxfile>